#!OML:ASF Y:\EmotionMaleHayes\Project 1\Capture day 1\Session 1\Male1.ASF
:FULLY-SPECIFIED
:DEGREES
67
root -28.8342 17.1974 -0.492097 25.75 85.0761 23.0355
lowerback 4.49159 1.93952 -4.20034
upperback 0.851532 2.39054 -0.616242
thorax -1.78533 1.22211 1.57374
lowerneck -23.6364 2.79655 3.31578
upperneck 25.4949 3.19431 -0.907016
head 12.4531 1.69302 -0.326994
rclavicle -3.5657e-015 3.18055e-015
rhumerus -34.6813 4.11869 -87.5302
rradius 32.3843
rwrist 1.04795
rhand -11.2115 -31.0893
rfingers 7.12502
rthumb 14.8167 -60.5396
lclavicle -3.5657e-015 3.18055e-015
lhumerus -29.6368 -14.3039 93.6532
lradius 25.9998
lwrist -13.348
lhand -15.1804 -26.8188
lfingers 7.12502
lthumb 10.9908 2.87352
rfemur 9.02892 -3.60863 12.1986
rtibia 1.35424
rfoot -16.2649 -10.1066
rtoes 11.5913
lfemur 11.533 -1.77548 -14.8597
ltibia -2.30715
lfoot -14.9593 19.8302
ltoes -5.34693
68
root -28.8319 17.1999 -0.488611 24.7931 85.1203 22.183
lowerback 4.58539 1.94397 -4.14876
upperback 0.87948 2.39554 -0.589901
thorax -1.80833 1.22448 1.56903
lowerneck -23.7065 2.80348 3.32337
upperneck 25.5976 3.20719 -0.922261
head 12.5086 1.69793 -0.330234
rclavicle -1.23495e-014 -4.87022e-015
rhumerus -34.656 3.98738 -87.5096
rradius 32.4187
rwrist 1.25981
rhand -11.3674 -30.8568
rfingers 7.12502
rthumb 14.6666 -60.3181
lclavicle -1.23495e-014 -4.87022e-015
lhumerus -29.6565 -14.3353 93.6679
lradius 26.1557
lwrist -13.2467
lhand -13.3042 -26.5854
lfingers 7.12502
lthumb 12.7999 3.00219
rfemur 9.17748 -3.66685 12.2882
rtibia 1.34225
rfoot -16.3778 -10.0034
rtoes 11.4365
lfemur 11.6038 -1.33304 -14.5722
ltibia -2.21395
lfoot -14.7996 19.3844
ltoes -5.48922
69
root -28.8291 17.1959 -0.486738 24.2879 85.2416 21.5914
lowerback 4.48876 1.908 -4.11445
upperback 0.851935 2.35342 -0.534768
thorax -1.78118 1.20287 1.61209
lowerneck -23.622 2.78052 3.11405
upperneck 25.4913 3.17891 -0.675832
head 12.4399 1.69852 -0.208256
rclavicle 1.00138e-014 -3.37934e-015
rhumerus -34.6908 4.0198 -87.4891
rradius 32.5206
rwrist 1.39817
rhand -11.5994 -30.5269
rfingers 7.12502
rthumb 14.443 -60.0043
lclavicle 1.00138e-014 -3.37934e-015
lhumerus -29.6918 -14.2878 93.7026
lradius 26.2931
lwrist -13.1982
lhand -13.2045 -26.6646
lfingers 7.12502
lthumb 12.8961 2.91697
rfemur 9.14675 -3.72209 12.4023
rtibia 1.28989
rfoot -16.4608 -10.0038
rtoes 12.0093
lfemur 11.6032 -1.68751 -14.5478
ltibia -2.38307
lfoot -14.8015 19.656
ltoes -5.33756
70
root -28.8302 17.2016 -0.487078 24.2936 85.2154 21.7216
lowerback 4.68563 1.91745 -4.16392
upperback 0.849172 2.35403 -0.521615
thorax -1.89668 1.20565 1.64634
lowerneck -23.5677 2.71454 3.02346
upperneck 25.6418 3.12296 -0.651195
head 12.4855 1.67124 -0.192874
rclavicle -1.5704e-014 1.12313e-014
rhumerus -34.7509 4.07073 -87.509
rradius 32.6219
rwrist 1.44842
rhand -11.738 -30.3426
rfingers 7.12502
rthumb 14.3095 -59.8295
lclavicle -1.5704e-014 1.12313e-014
lhumerus -29.7369 -14.2003 93.7086
lradius 26.3496
lwrist -13.2221
lhand -14.8969 -27.0052
lfingers 7.12502
lthumb 11.2642 2.67236
rfemur 9.27547 -3.70596 12.3702
rtibia 1.27125
rfoot -16.3829 -9.92184
rtoes 12.4449
lfemur 11.8607 -2.0708 -14.739
ltibia -2.62648
lfoot -14.8359 20.0791
ltoes -5.36345
71
root -28.8296 17.2037 -0.487649 26.3372 85.3383 23.7973
lowerback 4.76135 1.85601 -4.22302
upperback 0.826318 2.26418 -0.574483
thorax -1.95728 1.16269 1.62811
lowerneck -23.5659 2.72196 3.0553
upperneck 25.7112 3.12226 -0.641652
head 12.5133 1.67657 -0.194015
rclavicle -4.32357e-015 -7.95139e-016
rhumerus -34.8057 4.1542 -87.6029
rradius 32.6433
rwrist 1.35555
rhand -11.7109 -30.4247
rfingers 7.12502
rthumb 14.3356 -59.9097
lclavicle -4.32357e-015 -7.95139e-016
lhumerus -29.6921 -14.3061 93.6987
lradius 26.2727
lwrist -13.1818
lhand -14.0947 -27.3118
lfingers 7.12502
lthumb 12.0378 2.32196
rfemur 9.40116 -3.64973 12.2833
rtibia 1.16815
rfoot -16.4743 -10.1085
rtoes 12.8477
lfemur 11.7296 -1.70074 -14.7033
ltibia -2.39086
lfoot -14.697 19.5831
ltoes -5.76795
72
root -28.8315 17.2015 -0.486663 26.4276 85.2152 23.828
lowerback 4.72501 1.89809 -4.29633
upperback 0.800043 2.31711 -0.597373
thorax -1.96917 1.19002 1.64246
lowerneck -23.6634 2.79738 3.11062
upperneck 25.6816 3.19388 -0.616948
head 12.523 1.7154 -0.180308
rclavicle 1.82509e-014 -2.18663e-014
rhumerus -34.7573 4.18705 -87.6117
rradius 32.5148
rwrist 1.20071
rhand -11.4069 -30.6697
rfingers 7.12502
rthumb 14.6284 -60.1338
lclavicle 1.82509e-014 -2.18663e-014
lhumerus -29.5165 -14.1546 93.5601
lradius 26.1451
lwrist -13.9463
lhand -15.2671 -27.7329
lfingers 7.12502
lthumb 10.9072 1.96381
rfemur 9.26716 -3.70405 12.1876
rtibia 1.24926
rfoot -16.4977 -10.1026
rtoes 12.5335
lfemur 11.6657 -1.69401 -14.7791
ltibia -2.35474
lfoot -14.8359 19.6275
ltoes -5.04657
73
root -28.8337 17.2005 -0.484395 25.3464 85.2122 22.7266
lowerback 4.72196 1.91646 -4.25222
upperback 0.796013 2.34404 -0.562646
thorax -1.97298 1.20318 1.65171
lowerneck -23.5985 2.71197 3.02958
upperneck 25.751 3.12802 -0.673858
head 12.5358 1.67222 -0.200301
rclavicle -1.80149e-015 1.76918e-014
rhumerus -34.6936 4.19439 -87.5947
rradius 32.4517
rwrist 1.07409
rhand -11.1848 -30.911
rfingers 7.12502
rthumb 14.8425 -60.3594
lclavicle -1.80149e-015 1.76918e-014
lhumerus -29.3256 -13.7271 93.3169
lradius 26.1053
lwrist -15.295
lhand -14.307 -27.9598
lfingers 7.12502
lthumb 11.8331 1.68585
rfemur 9.21931 -3.68395 12.3021
rtibia 1.26954
rfoot -16.4117 -10.1578
rtoes 12.0398
lfemur 11.8189 -2.47319 -14.9486
ltibia -2.69287
lfoot -15.0928 20.3532
ltoes -4.46968
74
root -28.8345 17.2023 -0.483663 23.8355 85.2694 21.2421
lowerback 4.7686 1.91105 -4.11936
upperback 0.800049 2.34162 -0.525088
thorax -1.99108 1.20127 1.61485
lowerneck -23.6179 2.75312 3.03417
upperneck 25.7355 3.17693 -0.653612
head 12.5342 1.69657 -0.184624
rclavicle 1.43622e-014 -7.7526e-015
rhumerus -34.6873 4.2033 -87.6204
rradius 32.5317
rwrist 1.03813
rhand -11.1283 -30.8248
rfingers 7.12502
rthumb 14.8969 -60.2691
lclavicle 1.43622e-014 -7.7526e-015
lhumerus -29.2663 -13.5666 93.2203
lradius 26.1812
lwrist -15.6329
lhand -14.6472 -27.8687
lfingers 7.12502
lthumb 11.505 1.79559
rfemur 9.24415 -3.47464 12.5536
rtibia 1.25898
rfoot -16.3895 -10.2483
rtoes 11.7758
lfemur 11.8809 -2.5825 -14.8127
ltibia -2.78195
lfoot -15.0671 20.4458
ltoes -4.28298
75
root -28.8318 17.2004 -0.485701 24.6414 85.3902 21.9767
lowerback 4.67734 1.8556 -4.1032
upperback 0.782614 2.27224 -0.539163
thorax -1.95269 1.16603 1.59887
lowerneck -23.6679 2.77527 3.10848
upperneck 25.7977 3.20266 -0.726123
head 12.5724 1.70548 -0.219029
rclavicle -1.55922e-014 1.25234e-014
rhumerus -34.6618 4.14814 -87.6385
rradius 32.5745
rwrist 1.11622
rhand -11.0149 -30.7295
rfingers 7.12502
rthumb 15.0061 -60.1658
lclavicle -1.55922e-014 1.25234e-014
lhumerus -29.2906 -13.6141 93.241
lradius 26.3032
lwrist -15.1997
lhand -13.1389 -27.6288
lfingers 7.12502
lthumb 12.9593 1.94875
rfemur 9.22641 -3.58009 12.5275
rtibia 1.22274
rfoot -16.4058 -10.1846
rtoes 11.6235
lfemur 11.6359 -1.87345 -14.5489
ltibia -2.49948
lfoot -14.6987 19.732
ltoes -5.48199
76
root -28.8342 17.2018 -0.486087 24.5553 85.1895 21.9092
lowerback 4.78137 1.94078 -4.17611
upperback 0.737166 2.37441 -0.598356
thorax -2.06419 1.21991 1.56706
lowerneck -23.6467 2.75814 3.17019
upperneck 25.8204 3.16407 -0.748829
head 12.5782 1.69224 -0.244813
rclavicle 2.33572e-015 4.77083e-015
rhumerus -34.7193 4.12211 -87.7279
rradius 32.6358
rwrist 1.07017
rhand -11.0315 -30.8976
rfingers 7.12502
rthumb 14.9902 -60.335
lclavicle 2.33572e-015 4.77083e-015
lhumerus -29.3693 -13.6998 93.237
lradius 26.4076
lwrist -15.0185
lhand -12.7935 -27.4836
lfingers 7.12502
lthumb 13.2922 2.07253
rfemur 9.15952 -3.73867 12.3498
rtibia 1.30605
rfoot -16.2946 -9.94897
rtoes 11.3814
lfemur 11.7127 -1.76289 -14.6557
ltibia -2.56357
lfoot -14.6344 19.8582
ltoes -6.19417
77
root -28.8345 17.2001 -0.485366 25.5738 85.0688 22.9002
lowerback 4.79968 2.00252 -4.29159
upperback 0.691283 2.44708 -0.682454
thorax -2.12716 1.25864 1.53813
lowerneck -23.5771 2.68568 3.26911
upperneck 25.851 3.05288 -0.827851
head 12.5776 1.64374 -0.311644
rclavicle -1.32937e-015 1.98785e-015
rhumerus -34.7996 4.09733 -87.8352
rradius 32.7203
rwrist 0.949635
rhand -11.0669 -30.9734
rfingers 7.12502
rthumb 14.9561 -60.4134
lclavicle -1.32937e-015 1.98785e-015
lhumerus -29.3786 -13.8695 93.2136
lradius 26.3936
lwrist -14.9829
lhand -13.3848 -27.564
lfingers 7.12502
lthumb 12.7222 2.02848
rfemur 9.12241 -3.80895 12.1493
rtibia 1.29348
rfoot -16.1717 -9.91267
rtoes 11.7293
lfemur 11.7816 -2.07617 -14.9376
ltibia -2.72194
lfoot -14.8025 20.1958
ltoes -5.64494
78
root -28.8309 17.2031 -0.48634 26.7872 85.0469 24.2385
lowerback 4.82073 2.00848 -4.37405
upperback 0.778847 2.45283 -0.742789
thorax -2.04968 1.26012 1.52289
lowerneck -23.6001 2.72733 3.35222
upperneck 25.7919 3.07453 -0.823102
head 12.5608 1.66104 -0.320048
rclavicle -2.47238e-015 5.56597e-015
rhumerus -34.6961 4.08197 -87.8977
rradius 32.7336
rwrist 0.842441
rhand -11.0248 -30.9924
rfingers 7.12502
rthumb 14.9966 -60.4294
lclavicle -2.47238e-015 5.56597e-015
lhumerus -29.1828 -13.8909 93.119
lradius 26.2769
lwrist -14.9851
lhand -14.4606 -27.563
lfingers 7.12502
lthumb 11.6849 2.09114
rfemur 9.29915 -3.94343 11.9384
rtibia 1.25863
rfoot -16.0953 -9.77275
rtoes 12.4608
lfemur 11.8239 -1.76759 -14.9679
ltibia -2.52536
lfoot -14.8215 19.8195
ltoes -5.34058
